<?xml version="1.0" encoding="UTF-8"?>
<svg width="15px" height="15px" viewBox="0 0 15 15" version="1.1" xmlns="http://www.w3.org/2000/svg" xmlns:xlink="http://www.w3.org/1999/xlink">
    <title>Group 3</title>
    <g id="AppPage" stroke="none" stroke-width="1" fill="none" fill-rule="evenodd">
        <g id="Artboard-Copy-14" transform="translate(-293.000000, -59.000000)" fill="#7DB657" fill-rule="nonzero">
            <g id="Group-5" transform="translate(14.000000, 13.500000)">
                <g id="Group-4" transform="translate(168.000000, 45.500000)">
                    <g id="Group-3" transform="translate(111.000000, 0.000000)">
                        <path d="M7.5,0 C11.6421356,0 15,3.35786438 15,7.5 C15,11.6421356 11.6421356,15 7.5,15 C3.35786438,15 0,11.6421356 0,7.5 C0,3.35786438 3.35786438,0 7.5,0 Z M7.64,3.36 C6.64,3.36 5.74,3.7 5.14,4.31 C4.39,5.06 3.97,6.22 3.97,7.54 C3.97,8.82 4.36,9.95 5.06,10.68 C5.67,11.31 6.54,11.64 7.63,11.64 C8.83,11.64 9.79,11.25 10.36,10.55 C10.66,10.16 10.84,9.77 11.03,9.05 L9.6,8.8 C9.52,9.26 9.44,9.47 9.27,9.72 C8.95,10.19 8.35,10.46 7.65,10.46 C6.25,10.46 5.37,9.32 5.37,7.49 C5.37,5.65 6.23,4.54 7.65,4.54 C8.27,4.54 8.77,4.75 9.11,5.16 C9.31,5.39 9.4,5.58 9.54,6.02 L10.93,5.7 C10.81,5.32 10.74,5.14 10.62,4.93 C10.37,4.49 10.01,4.12 9.56,3.84 C9.01,3.51 8.42,3.36 7.64,3.36 Z" id="Combined-Shape"></path>
                    </g>
                </g>
            </g>
        </g>
    </g>
</svg>