<?xml version="1.0" encoding="UTF-8"?>
<svg width="15px" height="15px" viewBox="0 0 15 15" version="1.1" xmlns="http://www.w3.org/2000/svg" xmlns:xlink="http://www.w3.org/1999/xlink">
    <title>Group 2</title>
    <g id="AppPage" stroke="none" stroke-width="1" fill="none" fill-rule="evenodd">
        <g id="Artboard-Copy-14" transform="translate(-242.000000, -59.000000)" fill="#FAC115" fill-rule="nonzero">
            <g id="Group-5" transform="translate(14.000000, 13.500000)">
                <g id="Group-4" transform="translate(168.000000, 45.500000)">
                    <g id="Group-2" transform="translate(60.000000, 0.000000)">
                        <path d="M7.5,0 C11.6421356,0 15,3.35786438 15,7.5 C15,11.6421356 11.6421356,15 7.5,15 C3.35786438,15 0,11.6421356 0,7.5 C0,3.35786438 3.35786438,0 7.5,0 Z M10.3573247,3.485 C9.9373247,3.535 9.6173247,3.555 8.9873247,3.555 L6.1873247,3.555 C5.5773247,3.555 5.3273247,3.545 4.9173247,3.525 C4.9773247,3.985 4.9973247,4.275 4.9973247,4.825 L4.9973247,10.095 C4.9973247,10.755 4.9773247,11.175 4.9173247,11.515 L6.4073247,11.515 C6.3548247,11.1825 6.3329497,10.8729687 6.32830126,10.3251367 L6.3273247,8.075 L8.4673247,8.075 C9.0773247,8.075 9.4573247,8.095 9.8273247,8.145 L9.8273247,6.815 C9.4373247,6.865 9.0873247,6.885 8.4673247,6.885 L6.3273247,6.885 L6.3273247,4.765 L8.9873247,4.765 C9.6273247,4.765 9.9973247,4.785 10.3573247,4.835 L10.3573247,3.485 Z" id="Combined-Shape"></path>
                    </g>
                </g>
            </g>
        </g>
    </g>
</svg>