<?xml version="1.0" encoding="UTF-8"?>
<svg width="173px" height="42px" viewBox="0 0 173 42" version="1.1" xmlns="http://www.w3.org/2000/svg" xmlns:xlink="http://www.w3.org/1999/xlink">
    <title>Group</title>
    <defs>
        <linearGradient x1="50%" y1="0%" x2="50%" y2="100%" id="linearGradient-1">
            <stop stop-color="#EA3E4F" offset="0%"></stop>
            <stop stop-color="#D11D27" offset="100%"></stop>
        </linearGradient>
    </defs>
    <g id="Page-1" stroke="none" stroke-width="1" fill="none" fill-rule="evenodd">
        <g id="iPhone-12-Pro-Copy" transform="translate(-108.000000, -13.000000)">
            <g id="Group" transform="translate(108.732798, 13.002453)">
                <path d="M159.10856,36.8445712 C160.872911,36.8445712 162.249967,35.5371111 162.249967,33.9765943 C162.249967,33.3439524 162.077835,32.6691343 161.819637,32.1630207 L151.405657,9.30355795 C150.71713,7.70086499 149.727372,6.94169464 148.26425,6.94169464 C146.844162,6.94169464 145.854404,7.70086499 145.122843,9.30355795 L134.751897,32.1630207 C134.493699,32.6691343 134.321567,33.3439524 134.321567,33.9765943 C134.321567,35.5371111 135.698622,36.8445712 137.462974,36.8445712 C138.883062,36.8445712 140.044953,36.0432247 140.561348,34.8201169 L142.454799,30.4337993 L154.116735,30.4337993 L156.010185,34.8201169 C156.526581,36.0432247 157.645438,36.8445712 159.10856,36.8445712 Z M151.83223,25.3601331 L144.51765,25.3601331 L148.153552,16.9093202 L151.83223,25.3601331 Z M168.921316,37.0612587 C170.70324,37.0612587 172.224395,35.547189 172.224395,33.8228318 L172.224395,10.396809 C172.224395,8.67245185 170.70324,7.15838215 168.921316,7.15838215 C167.095931,7.15838215 165.574776,8.67245185 165.574776,10.396809 L165.574776,33.8228318 C165.574776,35.547189 167.095931,37.0612587 168.921316,37.0612587 Z" id="AI" fill="#D11D27"></path>
                <path d="M59.9663025,35.0475722 C60.399883,36.602951 61.3469142,37.2981582 62.8073959,37.1331938 C63.7658371,37.0153621 64.5987681,36.8621808 65.306189,36.6736501 C66.5156505,36.3437212 67.4512716,35.8075868 68.1130524,35.0652469 C68.7748332,34.322907 69.2654638,33.3036625 69.5849442,32.0075135 C69.7675044,31.2533904 69.9386546,30.2871702 70.0983948,29.1088529 C70.258135,27.9305356 70.4007602,26.6461697 70.5262703,25.2557553 C70.6517805,23.8653408 70.7658806,22.4690348 70.8685708,21.0668372 C70.9712609,19.6646396 71.045426,18.3743821 71.091066,17.1960648 L71.091066,17.1960648 L71.091066,17.0193172 C71.1595261,15.2282749 70.3037751,14.3681032 68.5238129,14.4388023 C67.4284516,14.485935 66.2132851,14.5212845 64.8783135,14.5448508 C63.5433418,14.5684172 62.1456151,14.5919835 60.6851334,14.6155499 C60.7307734,14.144223 60.7650035,13.6670044 60.7878235,13.1838943 C60.8106435,12.7007842 60.8334635,12.1999994 60.8562836,11.6815398 L60.8562836,11.6815398 L60.9247437,10.9038503 C61.0616638,9.08924166 60.2743729,8.13480463 58.5628708,8.04053925 L58.5628708,8.04053925 L57.9809601,8.00518973 C57.113799,7.95805704 56.4805433,8.12891305 56.0811928,8.51775776 C55.6818423,8.90660248 55.4935771,9.57235176 55.5163971,10.5150056 L55.5163971,10.5150056 L55.5163971,11.8936369 C55.5163971,12.3649638 55.5106921,12.8362907 55.4992821,13.3076177 C55.487872,13.7789446 55.470757,14.2384883 55.447937,14.6862489 C53.4169545,14.6626826 51.5571223,14.6391162 49.8684402,14.6155499 L49.8684402,14.6155499 L48.6703888,14.6155499 C46.8904266,14.5448508 46.0346755,15.4050225 46.1031356,17.1960648 L46.1031356,17.1960648 L46.1031356,17.2314143 C46.1487757,18.1505018 46.382681,18.8162511 46.8048515,19.2286622 C47.227022,19.6410732 47.8830978,19.8354956 48.7730789,19.8119293 L48.7730789,19.8119293 L51.2034118,19.7765797 C52.3900533,19.7530134 53.6223348,19.729447 54.9002563,19.7058807 C54.4666758,22.2274798 53.77637,24.3366678 52.8293388,26.0334447 C51.8823077,27.7302216 50.6557312,29.1677688 49.1496093,30.3460861 C48.4650085,30.888112 47.7233576,31.3947885 46.9246566,31.8661154 C45.9205754,32.4552741 45.3728947,33.0503243 45.2816146,33.6512661 C45.1903345,34.252208 45.5326349,35.0240058 46.3085159,35.9666597 C46.9246566,36.7207828 47.5750274,37.0978443 48.2596283,37.0978443 C48.6932088,37.0978443 49.1610193,36.9328799 49.66306,36.602951 C51.1007217,35.6602972 52.3900533,34.6351611 53.5310547,33.5275428 C55.1969167,31.9485976 56.5718234,30.0456152 57.6557747,27.8185954 C58.739726,25.5915757 59.555542,22.8755543 60.1032227,19.6705312 L60.1032227,19.6705312 L65.7169495,19.6705312 C65.7169495,20.1418581 65.6941295,20.7781495 65.6484894,21.5794052 C65.6028493,22.380661 65.5286843,23.2585074 65.4259941,24.2129444 C65.323304,25.1673815 65.2034989,26.0982521 65.0665787,27.0055565 C64.9296585,27.9128608 64.7699183,28.708225 64.5873581,29.391649 C64.4047979,30.1457721 64.1252526,30.717256 63.7487221,31.1061007 C63.3721916,31.4949455 62.8073959,31.7482837 62.054335,31.8661154 L62.054335,31.8661154 L62.020105,31.8661154 C60.9247437,32.0310798 60.2344378,32.3433339 59.9491875,32.8028777 C59.6639371,33.2624214 59.6696421,34.0106529 59.9663025,35.0475722 Z M98.4143686,34.2664618 C100.148691,34.2900282 101.004442,33.394507 100.981622,31.5798983 L100.981622,31.5798983 L100.947392,29.2821796 C100.924572,28.0095969 100.907457,26.6427488 100.896047,25.1816353 C100.884637,23.7205218 100.878932,22.2594084 100.878932,20.7982949 C100.878932,19.3371814 100.890342,17.9703333 100.913162,16.6977506 L100.913162,16.6977506 L100.913162,14.5414299 C100.935982,12.7503876 100.091641,11.8666496 98.3801386,11.890216 L98.3801386,11.890216 L95.5048151,11.9255655 C94.1812535,11.9491318 92.966087,11.9668066 91.8593156,11.9785898 C90.8632214,11.9891946 90.0196221,11.9950273 89.3285175,11.9960878 L88.8792482,11.9960878 C88.1891706,11.9950273 87.3512192,11.9891946 86.365394,11.9785898 C85.2700326,11.9668066 84.0948012,11.9491318 82.8396997,11.9255655 L82.8396997,11.9255655 L80.5120568,11.9255655 C78.7549147,11.9019991 77.8877536,12.7739539 77.9105737,14.5414299 L77.9105737,14.5414299 L77.9448037,16.7684497 C77.9448037,18.017466 77.9390987,19.3548562 77.9276887,20.7806201 C77.9162787,22.2063841 77.9105737,23.6380396 77.9105737,25.0755867 C77.9105737,26.5131339 77.8991637,27.8681988 77.8763436,29.1407815 L77.8763436,29.1407815 L77.8421136,31.5798983 C77.8192936,33.394507 78.6864546,34.2900282 80.4435968,34.2664618 L80.4435968,34.2664618 L98.4143686,34.2664618 Z M95.436355,29.24683 L83.3873803,29.24683 L83.3873803,17.0158963 L95.436355,17.0158963 L95.436355,29.24683 Z M116.409433,37.9975466 C116.797373,37.9975466 117.219544,37.8679317 117.675944,37.6087019 C118.816946,36.9488442 119.843847,36.2772033 120.756648,35.5937793 C122.10303,34.55686 123.198391,33.4138922 124.042732,32.1648759 C124.887073,30.9158595 125.537444,29.5018787 125.993844,27.9229335 C126.450245,26.3439883 126.76402,24.5293796 126.935171,22.4791075 C127.106321,20.4288354 127.191896,18.0604176 127.191896,15.3738541 C127.191896,14.3605012 127.203306,13.3707147 127.226126,12.4044944 L127.226126,12.4044944 L127.260356,10.8844651 C127.305996,9.9653776 127.123436,9.28784514 126.712675,8.85186774 C126.301915,8.41589033 125.662954,8.17433528 124.795793,8.12720259 L124.795793,8.12720259 L124.008502,8.09185307 C122.27418,8.02115403 121.441249,8.88132567 121.509709,10.672368 C121.555349,11.9920834 121.578169,13.5592454 121.578169,15.3738541 C121.578169,17.9190195 121.504004,20.1047981 121.355674,21.93119 C121.207344,23.7575818 120.933503,25.3070691 120.534153,26.5796518 C120.134802,27.8522345 119.570007,28.9303948 118.839766,29.8141328 C118.109525,30.6978708 117.173904,31.4461023 116.032902,32.0588273 L116.032902,32.0588273 L115.519452,32.3416235 C114.30999,32.9543485 113.631094,33.5906398 113.482764,34.2504975 C113.334434,34.9103552 113.671029,35.7705269 114.49255,36.8310124 C115.108691,37.6087019 115.747652,37.9975466 116.409433,37.9975466 Z M112.644128,25.7312633 C113.579749,25.7312633 114.258645,25.5132746 114.680816,25.0772972 C115.102986,24.6413198 115.302661,23.9520042 115.279841,23.0093503 L115.279841,23.0093503 L115.314071,20.4995344 L115.314071,20.4995344 L115.31419,16.9319239 C115.315453,15.9181633 115.326824,15.0453115 115.348301,14.3133685 L115.348301,14.3133685 L115.348301,11.3440089 C115.348301,10.4249214 115.148626,9.74149731 114.749276,9.29373673 C114.349925,8.84597615 113.716669,8.59852951 112.849508,8.55139682 L112.849508,8.55139682 L112.336058,8.5160473 C110.647376,8.44534826 109.814445,9.3055199 109.837265,11.0965622 L109.837265,11.0965622 L109.905725,13.1821839 C109.928545,14.3369349 109.94566,15.5447101 109.95707,16.8055096 C109.96848,18.0663092 109.974185,19.2858676 109.974185,20.4641849 L109.974185,20.4641849 L109.974185,23.0800493 C109.951365,24.8475253 110.807116,25.7312633 112.541438,25.7312633 L112.541438,25.7312633 L112.644128,25.7312633 Z" id="カロリ" fill="#000000" fill-rule="nonzero"></path>
                <g id="Group-2" transform="translate(0.000000, 0.000000)">
                    <path d="M24.9489545,9.12798137 C28.4458331,9.12798137 37.3912548,11.0147458 35.9873072,22.1385961 C34.8518025,31.1355029 23.9896975,41.9975466 18.0534112,41.9975466 C12.1171249,41.9975466 1.12354245,31.1355029 0.119515136,22.1385961 C-1.12360797,10.9991953 7.66098923,9.12798137 11.1578678,9.12798137 C13.6307345,9.12798137 15.9290829,9.86085309 18.052913,11.3265965 C20.3046163,9.86085309 22.6032969,9.12798137 24.9489545,9.12798137 Z" id="Path-Copy-2" fill="url(#linearGradient-1)"></path>
                    <path d="M11.1706028,9.12798137 C7.67870928,9.12798137 -1.25395992,11.0147458 0.147986173,22.1385961 C1.28187219,31.1355029 12.1284923,41.9975466 18.056316,41.9975466 C21.3052752,41.9975466 26.0712737,38.7346033 29.8804632,34.3041758 L30.0108429,33.9121467 C24.273666,38.0133187 20.2840501,39.5441534 18.0419953,38.5046505 C15.9905151,37.5535055 14.6660123,36.4581059 12.9683521,34.5078034 L12.800127,34.3131883 L12.800127,34.3131883 L12.6292623,34.1129089 L12.6292623,34.1129089 L12.4555256,33.9068149 C12.4263172,33.871973 12.3969795,33.8368826 12.3675075,33.8015405 L12.1890264,33.5864429 L12.1890264,33.5864429 L12.0070915,33.365155 C11.9764683,33.3277494 11.9456915,33.2900797 11.9147563,33.2521427 L11.7272046,33.0212875 L11.7272046,33.0212875 L11.5356176,32.7838664 L11.5356176,32.7838664 L11.3397626,32.539729 L11.3397626,32.539729 L11.0374687,32.1606012 L11.0374687,32.1606012 L10.7242631,31.7655164 L10.7242631,31.7655164 L10.1758732,31.0702042 L10.1758732,31.0702042 L8.9670795,29.532986 L8.9670795,29.532986 C4.66461322,24.0675068 3.0664785,13.2745607 8.9670795,11.2012711 C9.08026022,11.1615028 9.19122894,11.1217935 9.3000861,11.0821335 L9.51501479,11.0028761 C9.58573905,10.976477 9.65555462,10.9500968 9.72449124,10.9237327 L9.92869403,10.8446861 C10.1639238,10.7525146 10.388751,10.6605053 10.6044519,10.5685346 L10.7871331,10.4897092 C10.8473017,10.4634352 10.906755,10.4371616 10.9655228,10.4108854 L11.1397996,10.3320459 C11.2259396,10.2926194 11.3106041,10.2531805 11.3938937,10.2137196 L11.5586695,10.1347654 C11.5858365,10.1216005 11.6128582,10.1084324 11.6397383,10.0952608 L11.7993492,10.0161859 L11.7993492,10.0161859 L11.9557401,9.93700899 L11.9557401,9.93700899 L12.1090895,9.8577127 C12.1344042,9.84448574 12.1595996,9.83125309 12.1846794,9.81801439 L12.3338015,9.73850667 L12.3338015,9.73850667 L12.4803285,9.65883639 L12.4803285,9.65883639 L12.6244391,9.57898626 L12.6244391,9.57898626 L12.7663118,9.49893902 L12.7663118,9.49893902 L12.9061252,9.41867736 L12.9061252,9.41867736 L13.044058,9.33818401 C13.0668999,9.32474819 13.089671,9.31130199 13.1123749,9.29784506 C12.4686481,9.18456329 11.8214363,9.12798137 11.1706028,9.12798137 Z" id="Path" fill="#D11D27"></path>
                    <path d="M27.5609781,0.705379952 C26.066658,6.11816126 24.1798541,7.32395052 19.8941528,7.78116586 L19.6048635,7.81057583 C19.5560489,7.81530532 19.5069327,7.81995187 19.4575121,7.82452024 L19.1573132,7.85103018 L19.1573132,7.85103018 L18.8496763,7.87589142 L18.8496763,7.87589142 L18.5344691,7.89933166 C18.4812964,7.9031326 18.4278028,7.90688382 18.3739854,7.91059007 C19.3090772,1.3662329 23.0272122,0.279532947 27.298781,0.67909375 L27.5609781,0.705379952 L27.5609781,0.705379952 Z" id="Path-3" fill="#31A44E"></path>
                    <path d="M24.7828045,30.5851469 C25.277996,30.5851469 25.679428,31.2322433 25.679428,32.0304772 C25.679428,32.8287111 25.277996,33.4758075 24.7828045,33.4758075 C24.287613,33.4758075 23.8861811,32.8287111 23.8861811,32.0304772 C23.8861811,31.2322433 24.287613,30.5851469 24.7828045,30.5851469 Z M27.2929933,24.9579678 C27.7881848,24.9579678 28.1896168,25.6050642 28.1896168,26.4032981 C28.1896168,27.2015319 27.7881848,27.8486283 27.2929933,27.8486283 C26.7978019,27.8486283 26.3963699,27.2015319 26.3963699,26.4032981 C26.3963699,25.6050642 26.7978019,24.9579678 27.2929933,24.9579678 Z M29.7266856,19.4175351 C30.221877,19.4175351 30.623309,20.0646315 30.623309,20.8628654 C30.623309,21.6610992 30.221877,22.3081956 29.7266856,22.3081956 C29.2314941,22.3081956 28.8300621,21.6610992 28.8300621,20.8628654 C28.8300621,20.0646315 29.2314941,19.4175351 29.7266856,19.4175351 Z M24.7828045,19.4175351 C25.277996,19.4175351 25.679428,20.0646315 25.679428,20.8628654 C25.679428,21.6610992 25.277996,22.3081956 24.7828045,22.3081956 C24.287613,22.3081956 23.8861811,21.6610992 23.8861811,20.8628654 C23.8861811,20.0646315 24.287613,19.4175351 24.7828045,19.4175351 Z M27.2929933,13.9975466 C27.7881848,13.9975466 28.1896168,14.644643 28.1896168,15.4428769 C28.1896168,16.2411107 27.7881848,16.8882071 27.2929933,16.8882071 C26.7978019,16.8882071 26.3963699,16.2411107 26.3963699,15.4428769 C26.3963699,14.644643 26.7978019,13.9975466 27.2929933,13.9975466 Z" id="Combined-Shape" fill="#FFFFFF"></path>
                    <path d="M11.1578678,9.03503881 C13.6307345,9.03503881 15.9290829,9.76998281 18.052913,11.2398708 C20.3046163,9.76998281 22.6032969,9.03503881 24.9489545,9.03503881 C28.4458331,9.03503881 37.3912548,10.9271383 35.9873072,22.0824426 C34.8518025,31.1047891 23.9896975,41.9975466 18.0534112,41.9975466 C12.1171249,41.9975466 1.12354245,31.1047891 0.119515136,22.0824426 C-1.12360797,10.9115438 7.66098923,9.03503881 11.1578678,9.03503881 Z M24.9489545,10.9740099 C23.003812,10.9740099 21.0775605,11.5898792 19.1360477,12.8572782 C18.4630222,13.296622 17.5863109,13.2848516 16.9256342,12.8276018 C15.1279896,11.5834646 13.2220766,10.9740099 11.1578678,10.9740099 C9.13996785,10.9740099 6.77650664,11.6132019 5.05201247,12.9115048 C2.72787018,14.6612589 1.58517605,17.4991145 2.07165396,21.8706812 C2.48985054,25.6286611 5.02003957,30.2104002 8.67707974,34.1051603 C12.0774437,37.7265593 15.8521213,40.0585755 18.0534112,40.0585755 C20.2473579,40.0585755 23.9873515,37.7353012 27.3774104,34.1083926 C31.0127343,30.2190833 33.5625778,25.6241469 34.038409,21.8433486 C34.5858536,17.4935341 33.461115,14.6711903 31.1204189,12.9213288 C29.3795951,11.6199208 26.9764878,10.9740099 24.9489545,10.9740099 Z M20.89891,1.14573421 C22.6229814,0.0934337195 24.7570027,-0.179397277 27.47222,0.10598356 C28.0771249,0.169561622 28.4800458,0.755268409 28.3165383,1.33332834 C28.3071266,1.36660237 28.2976955,1.39973241 28.2882446,1.43271915 L28.2882446,1.43271915 L28.2312981,1.62892517 L28.1738535,1.82172386 L28.1158879,2.01114737 C28.1061822,2.04243847 28.0964539,2.07359029 28.0867025,2.10460348 L28.0867025,2.10460348 L28.0279123,2.28902452 L27.9685436,2.47015077 L27.9085736,2.64801439 L27.8479791,2.82264754 C27.8276744,2.88032375 27.8072617,2.93746691 27.7867374,2.99408237 L27.7867374,2.99408237 L27.7248253,3.16235104 C27.6833221,3.27348192 27.6413567,3.38252345 27.5988985,3.48951853 L27.5988985,3.48951853 L27.5348378,3.64848165 C27.5026188,3.72720115 27.4701141,3.80478157 27.4373106,3.88124101 L27.4373106,3.88124101 L27.3713014,4.03267058 C27.282748,4.23259811 27.1920091,4.42463991 27.0988397,4.60913899 L27.0988397,4.60913899 L27.0285032,4.7461044 C26.391304,5.9661612 25.6405781,6.84645966 24.7009924,7.49248823 L24.7009924,7.49248823 L24.6066628,7.55624222 L24.5115222,7.61833103 C24.4159526,7.67959596 24.3190602,7.73840228 24.2205273,7.79486743 L24.2205273,7.79486743 L24.1214356,7.85055654 L24.0211795,7.90471098 C23.9539383,7.94030818 23.8858736,7.97489965 23.8168913,8.00852021 L23.8168913,8.00852021 L23.7127178,8.0582272 L23.7127178,8.0582272 L23.6600928,8.08254272 L23.5537221,8.13011407 C23.4822984,8.1613617 23.4098393,8.19168191 23.3362505,8.22110949 L23.3362505,8.22110949 L23.2250082,8.26458574 C23.2063227,8.27172166 23.1875636,8.27880287 23.1687296,8.28582993 L23.1687296,8.28582993 L23.054813,8.32734671 C23.035673,8.33415931 23.016455,8.34091884 22.9971575,8.34762584 L22.9971575,8.34762584 L22.8804077,8.38724188 C22.8607866,8.39374095 22.8410831,8.40018858 22.8212957,8.40658532 L22.8212957,8.40658532 L22.7015536,8.44435934 L22.7015536,8.44435934 L22.5797282,8.48093797 L22.4244092,8.52501999 L22.4244092,8.52501999 L22.3929294,8.53362164 L22.2655868,8.56732597 L22.2655868,8.56732597 L22.2010459,8.58376249 L22.0701809,8.61582054 C21.9821332,8.63683471 21.892461,8.65713895 21.8010703,8.67676805 L21.8010703,8.67676805 L21.6626834,8.70570971 L21.6626834,8.70570971 L21.5925012,8.71980894 L21.4501148,8.74728048 L21.3049739,8.77380458 L21.1570076,8.79940732 L21.0061453,8.82411482 C20.9807563,8.82815958 20.9552437,8.83216812 20.9296061,8.836141 L20.9296061,8.836141 L20.7742673,8.85955454 L20.6158558,8.88213809 C20.5891939,8.88583429 20.5624011,8.889497 20.5354758,8.89312676 L20.5354758,8.89312676 L20.3723228,8.91451423 L20.2059204,8.93513694 L20.036198,8.95502099 L19.8630849,8.97419248 L19.6865103,8.99267751 L19.4150038,9.01917503 L19.2294666,9.03605809 L19.0402207,9.05234603 L18.8471953,9.06806496 L18.5504161,9.09063354 L18.3476329,9.10504411 L18.140823,9.11897702 C17.5169391,9.15991099 17.0122975,8.62195042 17.1013472,8.0108699 C17.5928089,4.6383406 18.8646384,2.38736787 20.89891,1.14573421 Z M25.9838414,1.94546373 C24.2937358,1.89711641 22.9712886,2.16325986 21.9344424,2.79610708 C20.6693059,3.56829308 19.7705576,4.9357305 19.2735448,7.06864526 L19.2735448,7.06864526 L19.2699349,7.08396662 L19.3455361,7.07683587 C19.3775327,7.07371065 19.409319,7.07055618 19.4408973,7.06737183 L19.4408973,7.06737183 L19.6278883,7.04790222 L19.8099946,7.02768555 L19.8099946,7.02768555 L19.8992499,7.01728766 L20.0742326,6.99589402 L20.0742326,6.99589402 L20.2446018,6.97367818 L20.410466,6.95061006 C20.4377407,6.94669268 20.4648321,6.94273854 20.4917427,6.93874701 L20.6510528,6.91434415 C20.6772486,6.91020056 20.703268,6.90601832 20.7291133,6.90179682 L20.7291133,6.90179682 L20.8821134,6.87599158 C22.0645268,6.67008087 22.8722288,6.37466095 23.5398503,5.9247231 L23.5398503,5.9247231 L23.5761588,5.90000654 C24.5662263,5.21926838 25.3200615,4.09500886 25.9907062,2.18973805 L25.9907062,2.18973805 L26.0533401,2.00882049 L26.0737522,1.94817266 Z" id="Combined-Shape" fill="#000000" fill-rule="nonzero"></path>
                </g>
            </g>
        </g>
    </g>
</svg>