<?xml version="1.0" encoding="UTF-8"?>
<svg width="15px" height="15px" viewBox="0 0 15 15" version="1.1" xmlns="http://www.w3.org/2000/svg" xmlns:xlink="http://www.w3.org/1999/xlink">
    <title>Group</title>
    <g id="AppPage" stroke="none" stroke-width="1" fill="none" fill-rule="evenodd">
        <g id="Artboard-Copy-14" transform="translate(-182.000000, -59.000000)" fill="#F48649" fill-rule="nonzero">
            <g id="Group-5" transform="translate(14.000000, 13.500000)">
                <g id="Group" transform="translate(168.000000, 45.500000)">
                    <path d="M7.5,0 C11.6421356,0 15,3.35786438 15,7.5 C15,11.6421356 11.6421356,15 7.5,15 C3.35786438,15 0,11.6421356 0,7.5 C0,3.35786438 3.35786438,0 7.5,0 Z M4.84672129,4.00412779 C4.90672129,4.45412779 4.92672129,4.81412779 4.92672129,5.29412779 L4.92672129,10.7041278 C4.92672129,11.2441278 4.90672129,11.5941278 4.84672129,11.9941278 L6.32672129,11.9941278 C6.26672129,11.6141278 6.24672129,11.2341278 6.24672129,10.6941278 L6.24672129,9.02412779 L8.15672129,9.02412779 C9.11672129,9.02412779 9.79672129,8.79412779 10.2867213,8.30412779 C10.7267213,7.84412779 10.9567213,7.22412779 10.9567213,6.46412779 C10.9567213,5.74412779 10.7467213,5.14412779 10.3367213,4.74412779 C9.85672129,4.26412779 9.17672129,4.03412779 8.20672129,4.03412779 L6.11672129,4.03412779 C5.58672129,4.03412779 5.27672129,4.02412779 4.84672129,4.00412779 Z M8.15672129,5.18412779 C8.68672129,5.18412779 9.01672129,5.29412779 9.24672129,5.54412779 C9.46672129,5.77412779 9.57672129,6.10412779 9.57672129,6.50412779 C9.57672129,7.38412779 9.07672129,7.87412779 8.15672129,7.87412779 L6.24672129,7.87412779 L6.24672129,5.18412779 L8.15672129,5.18412779 Z" id="Combined-Shape"></path>
                </g>
            </g>
        </g>
    </g>
</svg>